<svg width="232" height="253" viewBox="0 0 232 253" fill="none" xmlns="http://www.w3.org/2000/svg">
<path d="M152.3 118.491C152.31 118.251 152.1 117.961 151.93 117.751C151.01 116.591 151.07 115.221 151.11 114.001C148.9 110.431 147.54 106.591 145.11 103.261C142.53 99.7108 139.44 96.8208 136.02 94.1408C135.66 94.1608 135.27 94.1808 134.92 94.2008C134.74 94.6408 134.6 94.9708 134.2 95.9508C134.13 94.5208 134.1 93.8408 134.07 93.2008C131.23 90.6008 127.6 89.6808 124.23 88.2708C123.46 87.9508 122.35 88.3508 121.63 87.9708C119.93 87.0608 118.16 86.9908 116.32 86.8108C114.38 86.6208 112.47 86.0508 110.5 86.2808C109.26 86.4208 108.03 86.8808 106.81 86.8308C104.04 86.7308 101.49 87.6608 98.96 88.4408C96.02 89.3408 93.26 90.7408 90.51 92.2308C85.29 95.0608 81.05 98.9008 77.77 103.631C75.24 107.291 73 111.271 72.04 115.801C71.75 117.161 70.77 118.431 71.03 119.901C71.31 121.541 70.23 122.931 70.4 124.511C70.61 126.551 70.4 128.561 70.86 130.661C71.4 133.061 71.38 135.561 72.09 138.051C72.82 140.641 74.12 142.911 75.21 145.261C76.33 147.661 78.13 149.751 79.71 151.931C81.8 154.801 84.66 156.691 87.1 159.081C87.26 159.231 87.69 159.101 87.99 159.101C88.95 156.771 90.79 155.031 92.11 152.931C94 149.931 96.23 147.151 98.31 144.291C96.78 142.431 94.84 141.031 93.58 138.951C91.42 135.391 89.53 131.801 89.81 127.461C89.84 126.961 89.89 126.431 89.81 125.951C89.2 122.711 90.38 119.671 91.78 117.071C93.25 114.361 94.99 111.621 97.91 109.841C99.6 108.811 101.14 107.511 103.01 106.741C103.7 106.451 104.3 105.881 105.01 105.721C106.42 105.401 107.86 105.231 109.3 105.101C110.3 105.011 111.32 105.141 112.33 105.071C116.23 104.811 119.7 105.981 122.91 108.111C122.98 108.161 123.11 108.111 123.54 108.111C126.69 104.761 128.95 100.481 131.97 96.5708C132.42 96.6008 132.97 96.6408 133.75 96.7008C130.96 101.101 127.61 104.811 125.42 109.161C132.58 117.261 133.86 120.571 133.47 128.861C133.23 133.931 130.8 138.171 127.39 141.781C125.08 144.231 122.34 146.161 119.03 147.191C115.7 148.231 110.6 149.121 109.42 148.661C106.38 147.461 102.91 147.371 100.08 144.981C99.5 145.571 98.8 146.111 98.32 146.801C95.75 150.481 93.24 154.201 90.69 157.891C90.25 158.531 89.7 159.101 89.2 159.701C89.59 161.111 90.92 161.541 91.98 162.081C94.14 163.191 96.43 164.041 99.01 165.151C99.96 165.081 101.31 165.111 102.48 166.001C102.7 166.171 102.99 166.371 103.23 166.361C105.41 166.181 107.53 166.861 109.65 166.911C113.1 166.991 116.56 166.581 120.01 166.381C120.11 166.381 120.23 166.411 120.31 166.381C123.2 165.031 126.41 164.591 129.25 163.061C132.28 161.431 135.11 159.561 137.91 157.541C141.09 155.241 143.29 152.211 145.63 149.221C147.76 146.511 148.98 143.331 150.42 140.281C151.97 137.001 152.19 133.301 152.84 129.771C153.53 126.021 152.06 122.291 152.27 118.511L152.3 118.491Z" fill="black"/>
<path d="M230.47 28.1708C228.61 25.2408 228 21.6708 225.77 18.9108C224.26 17.0408 223.01 14.9708 221.45 13.1508C220.44 11.9808 219.03 11.1808 217.9 10.1008C216.98 9.22079 216.04 8.42079 214.83 7.98079C211.43 12.7908 208.03 17.6108 204.47 22.6508C204.8 22.9408 205.26 23.3508 205.73 23.7608C206.34 24.3708 206.94 24.9708 207.55 25.5808C207.69 26.0308 207.7 26.6008 208 26.9008C209.93 28.8508 210.84 31.3108 211.87 33.7808C212.85 36.1208 213.22 38.4308 212.98 40.8708C212.8 42.6708 212.59 44.5108 212.03 46.2208C211.31 48.4308 210.65 50.8608 209.22 52.5808C206.24 56.1808 202.86 59.5108 198.31 61.1708C196.99 61.6508 195.52 61.8608 194.11 61.9608C192.2 62.0908 190.27 61.9108 188.36 62.0208C187.05 62.1008 185.83 61.8708 184.68 61.3608C182.97 60.6108 181.11 60.1608 179.62 58.9508H179.01C178.81 59.1008 178.43 59.2608 178.43 59.4108C178.44 60.4308 177.72 60.1108 177.19 60.1608V61.3708H175.94C175.9 61.9308 175.9 62.4908 175.9 63.1208H174.39C174.39 63.1208 174.23 62.9908 174.24 62.9708C174.52 62.4308 174.81 61.9008 175.1 61.3808H175.94C175.98 61.0308 175.98 60.6708 175.98 60.1708H177.19C177.44 58.2408 176.65 56.7808 175.27 55.5008C173.42 53.7808 172.01 51.7108 170.97 49.4008C169.99 47.2108 169.12 45.0008 169.28 42.5108C169.37 41.2008 169.44 39.8608 169.27 38.5708C168.83 35.2008 170.14 32.2208 171.81 29.6208C174.29 25.7608 177.46 22.4008 181.89 20.5708C184.11 19.6508 186.3 18.7208 188.79 18.9008C189.8 18.9708 190.82 18.9808 191.82 18.9008C195.62 18.6008 198.99 19.8308 202.18 21.7508C202.34 21.8408 202.53 21.8808 202.92 22.0308C206.7 17.3608 209.65 12.0008 213.6 7.39079C213.6 7.29079 213.64 7.14079 213.6 7.09079C210.85 4.48079 207.2 3.51079 203.87 2.02079C202.48 1.40079 200.78 1.06079 199.24 0.820789C197.53 0.550789 195.78 0.390789 194.04 0.140789C190.26 -0.389211 186.54 0.750789 182.77 0.710789C182.67 0.710789 182.55 0.680789 182.47 0.710789C179.58 2.06079 176.35 2.47079 173.53 4.04079C170.71 5.61079 167.87 7.05079 165.28 9.10079C162.83 11.0408 160.58 13.1708 158.61 15.4808C156.18 18.3408 154.37 21.6908 152.83 25.1908C152.19 26.6508 151.55 27.9608 151.73 29.5608C149.84 30.9508 151.11 33.3208 149.96 34.9208C149.94 38.3508 149.61 41.8108 149.96 45.1908C150.36 49.0208 151.56 52.7608 153.06 56.3208C154.62 60.0108 156.97 63.3008 159.51 66.3708C161.63 68.9408 164.07 71.3008 167.06 72.9408C167.39 72.5208 167.69 72.0908 168.04 71.7208C168.44 71.2908 168.88 70.9108 169.3 70.5008C169 69.1208 170.39 68.5708 170.86 67.5608C171.51 66.1608 172.82 65.0608 174.15 63.4608C174.15 64.3308 174.33 64.9108 174.12 65.2408C172.79 67.2508 171.79 69.5008 169.9 71.1108C169.52 71.6408 169.14 72.1708 168.86 72.5608C169.11 73.3708 169.33 74.0808 169.56 74.8108C171.4 75.8008 173.13 77.0208 175.06 77.7008C176.99 78.3808 178.92 79.1508 180.93 79.6108C183.36 80.1708 185.8 80.6108 188.3 80.8508C191.8 81.1908 195.18 80.2208 198.65 80.1108C200.55 80.0508 202.41 78.9308 204.42 78.7608C204.58 78.7508 204.7 78.4708 204.87 78.4008C207.17 77.3608 209.57 76.5208 211.69 75.1308C213.85 73.7108 216.06 72.3208 217.98 70.6108C220.43 68.4408 222.79 66.1408 224.64 63.4008C225.86 61.6008 227.33 59.8608 228.07 57.8608C228.63 56.3508 229.52 55.0208 229.98 53.5008C230.45 51.9708 230.63 50.3308 231.26 48.8808C231.8 47.6408 231.81 46.4308 231.81 45.1708C231.82 42.0408 231.61 38.9008 231.87 35.7908C232.1 33.0508 230.56 30.7708 230.45 28.1708H230.47Z" fill="black"/>
<path d="M23.06 166.371H42.48V105.691C49.73 105.691 56.79 105.691 63.85 105.691C63.94 105.691 64.04 105.651 64.11 105.601C64.19 105.551 64.26 105.471 64.22 105.501V86.9808C53.7 86.5608 3.87 86.7308 1.32 87.1708V105.701H23.06V166.371ZM43.59 103.751C43.49 103.771 43.4 103.781 43.3 103.801C43.22 103.471 43.14 103.141 43.06 102.811C43.23 102.791 43.41 102.771 43.58 102.741V103.751H43.59ZM43.01 96.8108C43.46 96.0808 43.09 94.8508 43.09 93.8408V90.5708H44.21V101.381H42.41C42.77 99.8408 42.05 98.3708 43.01 96.8108Z" fill="black"/>
<path d="M113.71 19.4708C115.09 19.8108 116.56 19.5708 118.02 20.0508C120.03 20.7108 121.49 21.4808 122.81 23.0408C125.22 25.8908 125.56 30.7608 124.22 33.9508C123.29 36.1708 121.26 38.3408 119.1 38.8908C116.79 39.4708 114.47 40.1908 112.03 40.1608C108.31 40.1208 104.59 40.1508 100.88 40.1508V58.4408H112.77C117.6 65.7408 122.38 72.9608 127.17 80.2008H149.29C149.46 80.1308 149.63 80.0708 149.79 80.0008C149.62 79.8608 149.45 79.7308 149.29 79.5908C149.22 79.2108 149.28 78.7108 149.05 78.4808C146.7 76.1408 145.21 73.1708 143.28 70.5208C140.07 66.1108 137.17 61.4908 133.86 57.1408C132.96 55.9508 132.3 54.5808 131.48 53.2108C134.29 51.6408 136.56 49.5208 138.19 47.1208C141.64 42.0408 143.92 36.4108 143.84 30.0608C143.81 27.9908 143.5 25.9708 143.28 23.9308C143.15 22.6608 142.94 21.4508 142.59 20.2508C140.71 13.8308 135.54 7.55079 129.52 4.88079C128.06 4.23079 126.71 3.35079 125.18 2.51079C123.97 2.56079 122.6 2.61079 121.43 1.69079C121.21 1.52079 120.93 1.31079 120.68 1.32079C117.91 1.44079 115.18 1.08079 112.43 0.740789C110.44 0.500789 108.39 0.690789 106.37 0.690789H100.82V18.8108C105.16 19.2108 109.46 18.4008 113.69 19.4608L113.71 19.4708Z" fill="black"/>
<path d="M225.65 87.6908C225.59 87.6108 225.51 87.5508 225.44 87.4808H184.49V166.981C189.02 166.981 193.35 166.981 197.69 166.981C199.62 166.981 201.57 167.111 203.32 165.961V106.581C203.62 106.281 203.91 105.991 204.3 105.601H225.75C225.75 99.6508 225.75 93.8008 225.75 87.9508C225.75 87.8608 225.7 87.7708 225.65 87.6908Z" fill="black"/>
<path d="M148.15 195.081C147.89 193.761 147.61 192.461 147.12 191.241C145 185.991 141.56 181.791 136.91 178.531C133.84 176.381 130.21 175.681 126.86 174.251C124.08 174.561 121.43 173.421 118.62 173.591C114.69 173.821 110.74 173.651 106.8 173.651C106.6 173.851 106.4 174.051 106.19 174.261V191.251C106.39 191.451 106.59 191.651 106.8 191.861C110.74 191.861 114.68 191.921 118.62 191.841C121.11 191.781 123.28 192.711 125.44 193.701C127.47 194.641 128.7 196.431 129.86 198.271V206.081C129.44 206.551 128.87 206.931 128.68 207.461C127.84 209.681 125.75 210.611 124.04 211.781C122.97 212.511 121.25 212.441 119.82 212.471C115.3 212.551 110.79 212.501 106.26 212.501V231.311C106.8 231.311 107.28 231.331 107.76 231.311C112.52 231.051 117.34 231.931 122.06 230.711C125.76 231.131 128.97 229.501 132.27 228.271C136.78 226.591 140.28 223.491 143.33 219.911C145.17 217.761 146.61 215.171 147.34 212.511C148.12 209.671 148.78 206.691 148.69 203.651C148.6 200.791 148.72 197.951 148.15 195.101V195.081Z" fill="black"/>
<path d="M31.3 58.3508C36.47 58.0708 41.68 58.9808 46.81 57.7508C49.52 58.2608 51.84 56.5208 54.44 56.4108C58.62 54.0008 63.21 52.2208 66.06 47.9108C67.16 46.2408 68.22 44.5608 69.31 42.9008C70.44 41.1708 70.92 39.2708 71.49 37.4308C72.09 35.5208 72.17 33.3908 72.17 31.3508C72.17 28.7008 72.72 25.9908 71.61 23.4208C71.66 19.3008 69.37 16.0608 67.48 12.7108C66.07 10.2108 63.86 8.41079 61.56 6.70079C59.03 4.81079 56.16 3.63079 53.24 2.62079C52.17 2.25079 51 2.21079 50.06 1.35079C48.08 1.16079 45.96 1.71079 44.02 0.710789H29.88V18.9208C32.35 18.9208 34.69 19.0908 37 18.8708C39.42 18.6408 41.68 19.4108 44.02 19.5908C47.17 19.8308 50.25 20.5608 51.92 23.7908C52.31 24.5508 52.9 25.2008 53.4 25.9108C53.4 27.3208 53.5 28.7508 53.37 30.1508C53.24 31.5808 52.89 32.9908 52.61 34.5408C52.34 34.8608 51.96 35.3108 51.58 35.7708C51.03 36.4308 50.59 37.2408 49.91 37.7108C48.21 38.8808 43.32 40.1708 41.24 40.1708C37.43 40.1708 33.62 40.1708 29.8 40.1708V58.3808C30.34 58.3808 30.82 58.4008 31.3 58.3808V58.3508Z" fill="black"/>
<path d="M104.34 198.841C104.16 195.341 104.89 191.931 104.98 188.471C105.04 186.041 104.99 183.621 104.99 181.191V173.741H85.71V252.541H104.99C104.99 251.971 105.01 251.571 104.99 251.191C104.72 245.711 105.44 240.231 104.48 234.741C104.12 232.701 104.9 230.481 104.97 228.331C105.07 225.201 104.86 222.051 105.03 218.931C105.21 215.731 104.47 212.631 104.4 209.471C104.32 205.931 104.52 202.381 104.34 198.851V198.841Z" fill="black"/>
<path d="M98.59 0.700789H80.71C80.51 0.900789 80.31 1.10079 80.1 1.31079V80.0708H98.87C99.3 57.4408 99.11 3.48079 98.59 0.700789Z" fill="black"/>
<path d="M157.78 173.651V251.931L158.39 252.541H176.49V173.041C170.45 173.041 164.5 173.041 158.56 173.071C158.3 173.071 158.04 173.451 157.78 173.651Z" fill="black"/>
<path d="M215.95 234.541C215.9 234.461 215.82 234.391 215.86 234.431H177.87V252.441H216.05C216.05 246.501 216.05 240.651 216.05 234.801C216.05 234.711 216 234.621 215.96 234.541H215.95Z" fill="black"/>
<path d="M214.73 191.811V173.041C208.69 173.041 202.74 173.231 196.81 172.991C190.71 172.741 184.7 173.931 178.4 173.621C177.22 176.551 177.96 179.571 177.83 182.491C177.7 185.581 177.8 188.691 177.8 191.811H214.73Z" fill="black"/>
<path d="M178.02 221.491H211.14V203.481H177.82C177.82 209.421 177.82 215.271 177.82 221.111C177.82 221.201 177.86 221.301 177.91 221.371C177.96 221.451 178.05 221.521 178.02 221.491Z" fill="black"/>
<path d="M182.67 105.681V87.4708H162.64C162.64 93.5208 162.64 99.3708 162.64 105.211C162.64 105.301 162.69 105.391 162.74 105.471C162.8 105.551 162.88 105.611 162.96 105.671H182.67V105.681Z" fill="black"/>
<path d="M10.92 80.2008H27.81C28.25 69.3308 28.07 3.38079 27.6 0.700789H9.2C8.77 11.9708 8.94 77.4608 9.41 80.2008H10.93H10.92Z" fill="black"/>
<path d="M82.53 173.041H61.07C60.05 174.471 59.18 175.711 58.29 176.941C56.16 179.881 53.96 182.781 51.94 185.791C51.34 186.681 50.94 187.601 49.8 187.861C49.76 188.341 49.73 188.811 49.69 189.261C49.32 189.361 49.04 189.431 48.72 189.511C48.39 190.241 48.47 191.091 47.76 191.821C46.44 193.191 45.24 194.751 44.36 196.431C43.73 197.631 42.92 198.441 41.86 199.131C41.66 199.331 41.46 199.531 41.25 199.741H40.64V199.131C41.04 198.811 41.45 198.491 41.82 198.201C41.82 197.771 41.98 197.251 41.79 197.001C40.93 195.821 39.98 194.701 39.03 193.591C37.62 191.941 35.96 190.461 34.8 188.661C32.89 185.711 30.37 183.271 28.29 180.471C26.37 177.891 24.14 175.541 21.99 173.041H0.61C0.41 173.191 0.21 173.351 0 173.501C0.2 173.751 0.4 174.001 0.61 174.251C2.68 177.021 4.7 179.841 6.82 182.561C8.68 184.941 10.81 187.121 12.55 189.581C15.85 194.241 19.65 198.511 22.98 203.131C24.05 204.611 25.32 205.921 26.38 207.411C27.68 209.261 28.8 211.491 31.08 212.531C31.88 211.671 32.63 210.861 33.38 210.051V209.441C33.58 209.241 33.78 209.041 33.99 208.831C34.2 208.621 34.39 208.431 34.6 208.221C34.9 207.621 35.21 207.021 35.48 206.481C35.81 206.661 36.12 206.831 36.42 207.001C35.63 208.521 34.99 210.101 33.69 211.361C33.19 211.851 32.55 212.701 32.78 213.681C32.58 213.921 32.23 214.151 32.2 214.411C32.12 215.171 32.17 215.951 32.17 216.721V252.461H50.9V215.441C51.76 214.281 52.44 213.341 53.15 212.421C54.81 210.261 56.45 208.091 58.2 206.001C60.04 203.791 61.51 201.271 63.42 199.081C65.21 197.031 66.92 194.861 68.48 192.661C71.34 188.651 74.51 184.891 77.4 180.921C79 178.721 80.82 176.671 82.51 174.531C82.66 174.341 82.53 173.941 82.53 173.641C82.7 173.571 82.87 173.511 83.03 173.441C82.86 173.301 82.69 173.171 82.53 173.031V173.041ZM38.23 205.201H37.12C37.11 205.071 37.09 204.931 37.08 204.801C37.46 204.731 37.85 204.661 38.23 204.591V205.201ZM40.05 202.171C39.65 202.571 39.24 202.981 38.84 203.381C38.79 202.341 38.71 201.291 40.05 200.951C40.25 200.751 40.45 200.551 40.66 200.341V200.951H41.27C40.87 201.351 40.46 201.761 40.06 202.161L40.05 202.171Z" fill="black"/>
</svg>
