<svg width="232" height="253" viewBox="0 0 232 253" fill="none" xmlns="http://www.w3.org/2000/svg">
<path d="M152.3 118.5C152.31 118.26 152.1 117.97 151.93 117.76C151.01 116.6 151.07 115.23 151.11 114.01C148.9 110.44 147.54 106.6 145.11 103.27C142.53 99.72 139.44 96.83 136.02 94.15C135.66 94.17 135.27 94.19 134.92 94.21C134.74 94.65 134.6 94.98 134.2 95.96C134.13 94.53 134.1 93.85 134.07 93.21C131.23 90.61 127.6 89.69 124.23 88.28C123.46 87.96 122.35 88.36 121.63 87.98C119.93 87.07 118.16 87 116.32 86.82C114.38 86.63 112.47 86.06 110.5 86.29C109.26 86.43 108.03 86.89 106.81 86.84C104.04 86.74 101.49 87.67 98.96 88.45C96.02 89.35 93.26 90.75 90.51 92.24C85.29 95.07 81.05 98.91 77.77 103.64C75.24 107.3 73 111.28 72.04 115.81C71.75 117.17 70.77 118.44 71.03 119.91C71.31 121.55 70.23 122.94 70.4 124.52C70.61 126.56 70.4 128.57 70.86 130.67C71.4 133.07 71.38 135.57 72.09 138.06C72.82 140.65 74.12 142.92 75.21 145.27C76.33 147.67 78.13 149.76 79.71 151.94C81.8 154.81 84.66 156.7 87.1 159.09C87.26 159.24 87.69 159.11 87.99 159.11C88.95 156.78 90.79 155.04 92.11 152.94C94 149.94 96.23 147.16 98.31 144.3C96.78 142.44 94.84 141.04 93.58 138.96C91.42 135.4 89.53 131.81 89.81 127.47C89.84 126.97 89.89 126.44 89.81 125.96C89.2 122.72 90.38 119.68 91.78 117.08C93.25 114.37 94.99 111.63 97.91 109.85C99.6 108.82 101.14 107.52 103.01 106.75C103.7 106.46 104.3 105.89 105.01 105.73C106.42 105.41 107.86 105.24 109.3 105.11C110.3 105.02 111.32 105.15 112.33 105.08C116.23 104.82 119.7 105.99 122.91 108.12C122.98 108.17 123.11 108.12 123.54 108.12C126.69 104.77 128.95 100.49 131.97 96.58C132.42 96.61 132.97 96.65 133.75 96.71C130.96 101.11 127.61 104.82 125.42 109.17C132.58 117.27 133.86 120.58 133.47 128.87C133.23 133.94 130.8 138.18 127.39 141.79C125.08 144.24 122.34 146.17 119.03 147.2C115.7 148.24 110.6 149.13 109.42 148.67C106.38 147.47 102.91 147.38 100.08 144.99C99.5 145.58 98.8 146.12 98.32 146.81C95.75 150.49 93.24 154.21 90.69 157.9C90.25 158.54 89.7 159.11 89.2 159.71C89.59 161.12 90.92 161.55 91.98 162.09C94.14 163.2 96.43 164.05 99.01 165.16C99.96 165.09 101.31 165.12 102.48 166.01C102.7 166.18 102.99 166.38 103.23 166.37C105.41 166.19 107.53 166.87 109.65 166.92C113.1 167 116.56 166.59 120.01 166.39C120.11 166.39 120.23 166.42 120.31 166.39C123.2 165.04 126.41 164.6 129.25 163.07C132.28 161.44 135.11 159.57 137.91 157.55C141.09 155.25 143.29 152.22 145.63 149.23C147.76 146.52 148.98 143.34 150.42 140.29C151.97 137.01 152.19 133.31 152.84 129.78C153.53 126.03 152.06 122.3 152.27 118.52L152.3 118.5Z" fill="white"/>
<path d="M230.47 28.18C228.61 25.25 228 21.68 225.77 18.92C224.26 17.05 223.01 14.98 221.45 13.16C220.44 11.99 219.03 11.19 217.9 10.11C216.98 9.23 216.04 8.43 214.83 7.99C211.43 12.8 208.03 17.62 204.47 22.66C204.8 22.95 205.26 23.36 205.73 23.77C206.34 24.38 206.94 24.98 207.55 25.59C207.69 26.04 207.7 26.61 208 26.91C209.93 28.86 210.84 31.32 211.87 33.79C212.85 36.13 213.22 38.44 212.98 40.88C212.8 42.68 212.59 44.52 212.03 46.23C211.31 48.44 210.65 50.87 209.22 52.59C206.24 56.19 202.86 59.52 198.31 61.18C196.99 61.66 195.52 61.87 194.11 61.97C192.2 62.1 190.27 61.92 188.36 62.03C187.05 62.11 185.83 61.88 184.68 61.37C182.97 60.62 181.11 60.17 179.62 58.96H179.01C178.81 59.11 178.43 59.27 178.43 59.42C178.44 60.44 177.72 60.12 177.19 60.17V61.38H175.94C175.9 61.94 175.9 62.5 175.9 63.13H174.39C174.39 63.13 174.23 63 174.24 62.98C174.52 62.44 174.81 61.91 175.1 61.39H175.94C175.98 61.04 175.98 60.68 175.98 60.18H177.19C177.44 58.25 176.65 56.79 175.27 55.51C173.42 53.79 172.01 51.72 170.97 49.41C169.99 47.22 169.12 45.01 169.28 42.52C169.37 41.21 169.44 39.87 169.27 38.58C168.83 35.21 170.14 32.23 171.81 29.63C174.29 25.77 177.46 22.41 181.89 20.58C184.11 19.66 186.3 18.73 188.79 18.91C189.8 18.98 190.82 18.99 191.82 18.91C195.62 18.61 198.99 19.84 202.18 21.76C202.34 21.85 202.53 21.89 202.92 22.04C206.7 17.37 209.65 12.01 213.6 7.4C213.6 7.3 213.64 7.15 213.6 7.1C210.85 4.49 207.2 3.52 203.87 2.03C202.48 1.41 200.78 1.07 199.24 0.83C197.53 0.56 195.78 0.4 194.04 0.15C190.26 -0.38 186.54 0.76 182.77 0.72C182.67 0.72 182.55 0.69 182.47 0.72C179.58 2.07 176.35 2.48 173.53 4.05C170.71 5.62 167.87 7.06 165.28 9.11C162.83 11.05 160.58 13.18 158.61 15.49C156.18 18.35 154.37 21.7 152.83 25.2C152.19 26.66 151.55 27.97 151.73 29.57C149.84 30.96 151.11 33.33 149.96 34.93C149.94 38.36 149.61 41.82 149.96 45.2C150.36 49.03 151.56 52.77 153.06 56.33C154.62 60.02 156.97 63.31 159.51 66.38C161.63 68.95 164.07 71.31 167.06 72.95C167.39 72.53 167.69 72.1 168.04 71.73C168.44 71.3 168.88 70.92 169.3 70.51C169 69.13 170.39 68.58 170.86 67.57C171.51 66.17 172.82 65.07 174.15 63.47C174.15 64.34 174.33 64.92 174.12 65.25C172.79 67.26 171.79 69.51 169.9 71.12C169.52 71.65 169.14 72.18 168.86 72.57C169.11 73.38 169.33 74.09 169.56 74.82C171.4 75.81 173.13 77.03 175.06 77.71C176.99 78.39 178.92 79.16 180.93 79.62C183.36 80.18 185.8 80.62 188.3 80.86C191.8 81.2 195.18 80.23 198.65 80.12C200.55 80.06 202.41 78.94 204.42 78.77C204.58 78.76 204.7 78.48 204.87 78.41C207.17 77.37 209.57 76.53 211.69 75.14C213.85 73.72 216.06 72.33 217.98 70.62C220.43 68.45 222.79 66.15 224.64 63.41C225.86 61.61 227.33 59.87 228.07 57.87C228.63 56.36 229.52 55.03 229.98 53.51C230.45 51.98 230.63 50.34 231.26 48.89C231.8 47.65 231.81 46.44 231.81 45.18C231.82 42.05 231.61 38.91 231.87 35.8C232.1 33.06 230.56 30.78 230.45 28.18H230.47Z" fill="white"/>
<path d="M23.06 166.38H42.48V105.7C49.73 105.7 56.79 105.7 63.85 105.7C63.94 105.7 64.04 105.66 64.11 105.61C64.19 105.56 64.26 105.48 64.22 105.51V86.99C53.7 86.57 3.87 86.74 1.32 87.18V105.71H23.06V166.38ZM43.59 103.76C43.49 103.78 43.4 103.79 43.3 103.81C43.22 103.48 43.14 103.15 43.06 102.82C43.23 102.8 43.41 102.78 43.58 102.75V103.76H43.59ZM43.01 96.82C43.46 96.09 43.09 94.86 43.09 93.85V90.58H44.21V101.39H42.41C42.77 99.85 42.05 98.38 43.01 96.82Z" fill="white"/>
<path d="M113.71 19.48C115.09 19.82 116.56 19.58 118.02 20.06C120.03 20.72 121.49 21.49 122.81 23.05C125.22 25.9 125.56 30.77 124.22 33.96C123.29 36.18 121.26 38.35 119.1 38.9C116.79 39.48 114.47 40.2 112.03 40.17C108.31 40.13 104.59 40.16 100.88 40.16V58.45H112.77C117.6 65.75 122.38 72.97 127.17 80.21H149.29C149.46 80.14 149.63 80.08 149.79 80.01C149.62 79.87 149.45 79.74 149.29 79.6C149.22 79.22 149.28 78.72 149.05 78.49C146.7 76.15 145.21 73.18 143.28 70.53C140.07 66.12 137.17 61.5 133.86 57.15C132.96 55.96 132.3 54.59 131.48 53.22C134.29 51.65 136.56 49.53 138.19 47.13C141.64 42.05 143.92 36.42 143.84 30.07C143.81 28 143.5 25.98 143.28 23.94C143.15 22.67 142.94 21.46 142.59 20.26C140.71 13.84 135.54 7.56 129.52 4.89C128.06 4.24 126.71 3.36 125.18 2.52C123.97 2.57 122.6 2.62 121.43 1.7C121.21 1.53 120.93 1.32 120.68 1.33C117.91 1.45 115.18 1.09 112.43 0.75C110.44 0.51 108.39 0.7 106.37 0.7H100.82V18.82C105.16 19.22 109.46 18.41 113.69 19.47L113.71 19.48Z" fill="white"/>
<path d="M225.65 87.7C225.59 87.62 225.51 87.56 225.44 87.49H184.49V166.99C189.02 166.99 193.35 166.99 197.69 166.99C199.62 166.99 201.57 167.12 203.32 165.97V106.59C203.62 106.29 203.91 106 204.3 105.61H225.75C225.75 99.66 225.75 93.81 225.75 87.96C225.75 87.87 225.7 87.78 225.65 87.7Z" fill="white"/>
<path d="M148.15 195.09C147.89 193.77 147.61 192.47 147.12 191.25C145 186 141.56 181.8 136.91 178.54C133.84 176.39 130.21 175.69 126.86 174.26C124.08 174.57 121.43 173.43 118.62 173.6C114.69 173.83 110.74 173.66 106.8 173.66C106.6 173.86 106.4 174.06 106.19 174.27V191.26C106.39 191.46 106.59 191.66 106.8 191.87C110.74 191.87 114.68 191.93 118.62 191.85C121.11 191.79 123.28 192.72 125.44 193.71C127.47 194.65 128.7 196.44 129.86 198.28V206.09C129.44 206.56 128.87 206.94 128.68 207.47C127.84 209.69 125.75 210.62 124.04 211.79C122.97 212.52 121.25 212.45 119.82 212.48C115.3 212.56 110.79 212.51 106.26 212.51V231.32C106.8 231.32 107.28 231.34 107.76 231.32C112.52 231.06 117.34 231.94 122.06 230.72C125.76 231.14 128.97 229.51 132.27 228.28C136.78 226.6 140.28 223.5 143.33 219.92C145.17 217.77 146.61 215.18 147.34 212.52C148.12 209.68 148.78 206.7 148.69 203.66C148.6 200.8 148.72 197.96 148.15 195.11V195.09Z" fill="white"/>
<path d="M31.3 58.36C36.47 58.08 41.68 58.99 46.81 57.76C49.52 58.27 51.84 56.53 54.44 56.42C58.62 54.01 63.21 52.23 66.06 47.92C67.16 46.25 68.22 44.57 69.31 42.91C70.44 41.18 70.92 39.28 71.49 37.44C72.09 35.53 72.17 33.4 72.17 31.36C72.17 28.71 72.72 26 71.61 23.43C71.66 19.31 69.37 16.07 67.48 12.72C66.07 10.22 63.86 8.42 61.56 6.71C59.03 4.82 56.16 3.64 53.24 2.63C52.17 2.26 51 2.22 50.06 1.36C48.08 1.17 45.96 1.72 44.02 0.72H29.88V18.93C32.35 18.93 34.69 19.1 37 18.88C39.42 18.65 41.68 19.42 44.02 19.6C47.17 19.84 50.25 20.57 51.92 23.8C52.31 24.56 52.9 25.21 53.4 25.92C53.4 27.33 53.5 28.76 53.37 30.16C53.24 31.59 52.89 33 52.61 34.55C52.34 34.87 51.96 35.32 51.58 35.78C51.03 36.44 50.59 37.25 49.91 37.72C48.21 38.89 43.32 40.18 41.24 40.18C37.43 40.18 33.62 40.18 29.8 40.18V58.39C30.34 58.39 30.82 58.41 31.3 58.39V58.36Z" fill="white"/>
<path d="M104.34 198.85C104.16 195.35 104.89 191.94 104.98 188.48C105.04 186.05 104.99 183.63 104.99 181.2V173.75H85.71V252.55H104.99C104.99 251.98 105.01 251.58 104.99 251.2C104.72 245.72 105.44 240.24 104.48 234.75C104.12 232.71 104.9 230.49 104.97 228.34C105.07 225.21 104.86 222.06 105.03 218.94C105.21 215.74 104.47 212.64 104.4 209.48C104.32 205.94 104.52 202.39 104.34 198.86V198.85Z" fill="white"/>
<path d="M98.59 0.71H80.71C80.51 0.91 80.31 1.11 80.1 1.32V80.08H98.87C99.3 57.45 99.11 3.49 98.59 0.71Z" fill="white"/>
<path d="M157.78 173.66V251.94L158.39 252.55H176.49V173.05C170.45 173.05 164.5 173.05 158.56 173.08C158.3 173.08 158.04 173.46 157.78 173.66Z" fill="white"/>
<path d="M215.95 234.55C215.9 234.47 215.82 234.4 215.86 234.44H177.87V252.45H216.05C216.05 246.51 216.05 240.66 216.05 234.81C216.05 234.72 216 234.63 215.96 234.55H215.95Z" fill="white"/>
<path d="M214.73 191.82V173.05C208.69 173.05 202.74 173.24 196.81 173C190.71 172.75 184.7 173.94 178.4 173.63C177.22 176.56 177.96 179.58 177.83 182.5C177.7 185.59 177.8 188.7 177.8 191.82H214.73Z" fill="white"/>
<path d="M178.02 221.5H211.14V203.49H177.82C177.82 209.43 177.82 215.28 177.82 221.12C177.82 221.21 177.86 221.31 177.91 221.38C177.96 221.46 178.05 221.53 178.02 221.5Z" fill="white"/>
<path d="M182.67 105.69V87.48H162.64C162.64 93.53 162.64 99.38 162.64 105.22C162.64 105.31 162.69 105.4 162.74 105.48C162.8 105.56 162.88 105.62 162.96 105.68H182.67V105.69Z" fill="white"/>
<path d="M10.92 80.21H27.81C28.25 69.34 28.07 3.39 27.6 0.71H9.2C8.77 11.98 8.94 77.47 9.41 80.21H10.93H10.92Z" fill="white"/>
<path d="M82.53 173.05H61.07C60.05 174.48 59.18 175.72 58.29 176.95C56.16 179.89 53.96 182.79 51.94 185.8C51.34 186.69 50.94 187.61 49.8 187.87C49.76 188.35 49.73 188.82 49.69 189.27C49.32 189.37 49.04 189.44 48.72 189.52C48.39 190.25 48.47 191.1 47.76 191.83C46.44 193.2 45.24 194.76 44.36 196.44C43.73 197.64 42.92 198.45 41.86 199.14C41.66 199.34 41.46 199.54 41.25 199.75H40.64V199.14C41.04 198.82 41.45 198.5 41.82 198.21C41.82 197.78 41.98 197.26 41.79 197.01C40.93 195.83 39.98 194.71 39.03 193.6C37.62 191.95 35.96 190.47 34.8 188.67C32.89 185.72 30.37 183.28 28.29 180.48C26.37 177.9 24.14 175.55 21.99 173.05H0.61C0.41 173.2 0.21 173.36 0 173.51C0.2 173.76 0.4 174.01 0.61 174.26C2.68 177.03 4.7 179.85 6.82 182.57C8.68 184.95 10.81 187.13 12.55 189.59C15.85 194.25 19.65 198.52 22.98 203.14C24.05 204.62 25.32 205.93 26.38 207.42C27.68 209.27 28.8 211.5 31.08 212.54C31.88 211.68 32.63 210.87 33.38 210.06V209.45C33.58 209.25 33.78 209.05 33.99 208.84C34.2 208.63 34.39 208.44 34.6 208.23C34.9 207.63 35.21 207.03 35.48 206.49C35.81 206.67 36.12 206.84 36.42 207.01C35.63 208.53 34.99 210.11 33.69 211.37C33.19 211.86 32.55 212.71 32.78 213.69C32.58 213.93 32.23 214.16 32.2 214.42C32.12 215.18 32.17 215.96 32.17 216.73V252.47H50.9V215.45C51.76 214.29 52.44 213.35 53.15 212.43C54.81 210.27 56.45 208.1 58.2 206.01C60.04 203.8 61.51 201.28 63.42 199.09C65.21 197.04 66.92 194.87 68.48 192.67C71.34 188.66 74.51 184.9 77.4 180.93C79 178.73 80.82 176.68 82.51 174.54C82.66 174.35 82.53 173.95 82.53 173.65C82.7 173.58 82.87 173.52 83.03 173.45C82.86 173.31 82.69 173.18 82.53 173.04V173.05ZM38.23 205.21H37.12C37.11 205.08 37.09 204.94 37.08 204.81C37.46 204.74 37.85 204.67 38.23 204.6V205.21ZM40.05 202.18C39.65 202.58 39.24 202.99 38.84 203.39C38.79 202.35 38.71 201.3 40.05 200.96C40.25 200.76 40.45 200.56 40.66 200.35V200.96H41.27C40.87 201.36 40.46 201.77 40.06 202.17L40.05 202.18Z" fill="white"/>
</svg>
